<mxfile host="app.diagrams.net" modified="2023-06-13T19:28:00.189Z" agent="Mozilla/5.0 (X11; Linux x86_64; rv:102.0) Gecko/20100101 Firefox/102.0" etag="UuFEHTQsB94Q5GEE14XE" version="21.3.8" type="device">
  <diagram name="Page-1" id="NWUdhLfvIVTIzmM5uYsd">
    <mxGraphModel dx="1434" dy="816" grid="1" gridSize="10" guides="1" tooltips="1" connect="1" arrows="1" fold="1" page="1" pageScale="1" pageWidth="850" pageHeight="1100" math="0" shadow="0">
      <root>
        <mxCell id="0" />
        <mxCell id="1" parent="0" />
        <mxCell id="0bLsAVOf9WYYPahXs2xi-3" style="edgeStyle=orthogonalEdgeStyle;rounded=0;orthogonalLoop=1;jettySize=auto;html=1;entryX=0.5;entryY=1;entryDx=0;entryDy=0;startArrow=classic;startFill=1;fillColor=#0050ef;strokeColor=#001DBC;strokeWidth=2;" edge="1" parent="1">
          <mxGeometry relative="1" as="geometry">
            <mxPoint x="400" y="270" as="sourcePoint" />
            <mxPoint x="400" y="150" as="targetPoint" />
          </mxGeometry>
        </mxCell>
        <mxCell id="0bLsAVOf9WYYPahXs2xi-4" value="Client requests Server Global Public Key (No auth needed)" style="text;html=1;align=center;verticalAlign=middle;resizable=0;points=[];autosize=1;strokeColor=none;fillColor=none;" vertex="1" parent="1">
          <mxGeometry x="50" y="170" width="340" height="30" as="geometry" />
        </mxCell>
        <mxCell id="0bLsAVOf9WYYPahXs2xi-6" value="" style="image;html=1;image=img/lib/clip_art/computers/Server_Rack_128x128.png" vertex="1" parent="1">
          <mxGeometry x="385" y="60" width="80" height="80" as="geometry" />
        </mxCell>
        <mxCell id="0bLsAVOf9WYYPahXs2xi-7" value="" style="verticalLabelPosition=bottom;html=1;verticalAlign=top;align=center;strokeColor=none;fillColor=#00BEF2;shape=mxgraph.azure.laptop;pointerEvents=1;" vertex="1" parent="1">
          <mxGeometry x="385" y="280" width="75" height="50" as="geometry" />
        </mxCell>
        <mxCell id="0bLsAVOf9WYYPahXs2xi-9" value="Client encrypts login data with Server&#39;s PubKey" style="text;html=1;align=center;verticalAlign=middle;resizable=0;points=[];autosize=1;strokeColor=none;fillColor=none;" vertex="1" parent="1">
          <mxGeometry x="10" y="280" width="280" height="30" as="geometry" />
        </mxCell>
        <mxCell id="0bLsAVOf9WYYPahXs2xi-10" value="" style="endArrow=classic;html=1;rounded=0;fillColor=#0050ef;strokeColor=#001DBC;strokeWidth=2;" edge="1" parent="1">
          <mxGeometry width="50" height="50" relative="1" as="geometry">
            <mxPoint x="380" y="294.5" as="sourcePoint" />
            <mxPoint x="300" y="294.5" as="targetPoint" />
          </mxGeometry>
        </mxCell>
        <mxCell id="0bLsAVOf9WYYPahXs2xi-11" value="" style="endArrow=classic;html=1;rounded=0;exitX=0.464;exitY=1;exitDx=0;exitDy=0;exitPerimeter=0;fillColor=#a20025;strokeColor=#6F0000;strokeWidth=2;" edge="1" parent="1" source="0bLsAVOf9WYYPahXs2xi-9">
          <mxGeometry width="50" height="50" relative="1" as="geometry">
            <mxPoint x="140" y="320" as="sourcePoint" />
            <mxPoint x="380" y="320" as="targetPoint" />
            <Array as="points">
              <mxPoint x="260" y="320" />
            </Array>
          </mxGeometry>
        </mxCell>
        <mxCell id="0bLsAVOf9WYYPahXs2xi-12" value="&lt;font style=&quot;font-size: 8px;&quot;&gt;encrypted data&lt;br&gt;&lt;/font&gt;" style="text;html=1;align=center;verticalAlign=middle;resizable=0;points=[];autosize=1;strokeColor=#6F0000;fillColor=#a20025;fontColor=#ffffff;" vertex="1" parent="1">
          <mxGeometry x="270" y="320" width="80" height="30" as="geometry" />
        </mxCell>
        <mxCell id="0bLsAVOf9WYYPahXs2xi-14" value="&lt;font style=&quot;font-size: 8px;&quot;&gt;Plaintext data&lt;/font&gt;" style="text;html=1;align=center;verticalAlign=middle;resizable=0;points=[];autosize=1;strokeColor=#001DBC;fillColor=#0050ef;fontColor=#ffffff;" vertex="1" parent="1">
          <mxGeometry x="310" y="260" width="70" height="30" as="geometry" />
        </mxCell>
        <mxCell id="0bLsAVOf9WYYPahXs2xi-16" style="edgeStyle=orthogonalEdgeStyle;rounded=0;orthogonalLoop=1;jettySize=auto;html=1;entryX=0.5;entryY=1;entryDx=0;entryDy=0;startArrow=none;startFill=0;fillColor=#a20025;strokeColor=#6F0000;strokeWidth=2;" edge="1" parent="1">
          <mxGeometry relative="1" as="geometry">
            <mxPoint x="440" y="270" as="sourcePoint" />
            <mxPoint x="440" y="150" as="targetPoint" />
          </mxGeometry>
        </mxCell>
        <mxCell id="0bLsAVOf9WYYPahXs2xi-17" value="Send Encrypted login data " style="text;html=1;align=center;verticalAlign=middle;resizable=0;points=[];autosize=1;strokeColor=none;fillColor=none;" vertex="1" parent="1">
          <mxGeometry x="460" y="180" width="160" height="30" as="geometry" />
        </mxCell>
        <mxCell id="0bLsAVOf9WYYPahXs2xi-18" value="&lt;div style=&quot;font-size: 15px;&quot;&gt;&lt;u&gt;&lt;b&gt;Authentication Encryption&lt;/b&gt;&lt;/u&gt;&lt;/div&gt;&lt;div&gt;&lt;br&gt;&lt;/div&gt;" style="text;html=1;align=center;verticalAlign=middle;resizable=0;points=[];autosize=1;strokeColor=none;fillColor=none;" vertex="1" parent="1">
          <mxGeometry x="65" y="45" width="210" height="50" as="geometry" />
        </mxCell>
        <mxCell id="0bLsAVOf9WYYPahXs2xi-19" value="&lt;u&gt;&lt;b&gt;&lt;font style=&quot;font-size: 15px;&quot;&gt;Post authentication encryption loop&lt;/font&gt;&lt;/b&gt;&lt;/u&gt;" style="text;html=1;align=center;verticalAlign=middle;resizable=0;points=[];autosize=1;strokeColor=none;fillColor=none;" vertex="1" parent="1">
          <mxGeometry x="20" y="465" width="280" height="30" as="geometry" />
        </mxCell>
        <mxCell id="0bLsAVOf9WYYPahXs2xi-20" style="edgeStyle=orthogonalEdgeStyle;rounded=0;orthogonalLoop=1;jettySize=auto;html=1;entryX=0.5;entryY=1;entryDx=0;entryDy=0;startArrow=none;startFill=0;fillColor=#0050ef;strokeColor=#001DBC;strokeWidth=2;" edge="1" parent="1">
          <mxGeometry relative="1" as="geometry">
            <mxPoint x="410" y="685" as="sourcePoint" />
            <mxPoint x="410" y="565" as="targetPoint" />
          </mxGeometry>
        </mxCell>
        <mxCell id="0bLsAVOf9WYYPahXs2xi-21" value="Server knows client Pub Key, sent in authentication/each JSON.&lt;br&gt;Server sends encrypted data (encrypted via client pub key)" style="text;html=1;align=center;verticalAlign=middle;resizable=0;points=[];autosize=1;strokeColor=none;fillColor=none;" vertex="1" parent="1">
          <mxGeometry x="35" y="580" width="360" height="40" as="geometry" />
        </mxCell>
        <mxCell id="0bLsAVOf9WYYPahXs2xi-22" value="" style="image;html=1;image=img/lib/clip_art/computers/Server_Rack_128x128.png" vertex="1" parent="1">
          <mxGeometry x="395" y="475" width="80" height="80" as="geometry" />
        </mxCell>
        <mxCell id="0bLsAVOf9WYYPahXs2xi-23" value="" style="verticalLabelPosition=bottom;html=1;verticalAlign=top;align=center;strokeColor=none;fillColor=#00BEF2;shape=mxgraph.azure.laptop;pointerEvents=1;" vertex="1" parent="1">
          <mxGeometry x="395" y="695" width="75" height="50" as="geometry" />
        </mxCell>
        <mxCell id="0bLsAVOf9WYYPahXs2xi-24" value="" style="endArrow=classic;html=1;rounded=0;fillColor=#0050ef;strokeColor=#001DBC;strokeWidth=2;" edge="1" parent="1">
          <mxGeometry width="50" height="50" relative="1" as="geometry">
            <mxPoint x="390" y="709.5" as="sourcePoint" />
            <mxPoint x="310" y="709.5" as="targetPoint" />
          </mxGeometry>
        </mxCell>
        <mxCell id="0bLsAVOf9WYYPahXs2xi-25" value="" style="endArrow=classic;html=1;rounded=0;exitX=0.464;exitY=1;exitDx=0;exitDy=0;exitPerimeter=0;fillColor=#a20025;strokeColor=#6F0000;strokeWidth=2;" edge="1" parent="1">
          <mxGeometry width="50" height="50" relative="1" as="geometry">
            <mxPoint x="150" y="725" as="sourcePoint" />
            <mxPoint x="390" y="735" as="targetPoint" />
            <Array as="points">
              <mxPoint x="270" y="735" />
            </Array>
          </mxGeometry>
        </mxCell>
        <mxCell id="0bLsAVOf9WYYPahXs2xi-26" value="&lt;font style=&quot;font-size: 8px;&quot;&gt;encrypted data&lt;br&gt;&lt;/font&gt;" style="text;html=1;align=center;verticalAlign=middle;resizable=0;points=[];autosize=1;strokeColor=#6F0000;fillColor=#a20025;fontColor=#ffffff;" vertex="1" parent="1">
          <mxGeometry x="280" y="735" width="80" height="30" as="geometry" />
        </mxCell>
        <mxCell id="0bLsAVOf9WYYPahXs2xi-27" value="&lt;font style=&quot;font-size: 8px;&quot;&gt;Encrypted&lt;/font&gt;" style="text;html=1;align=center;verticalAlign=middle;resizable=0;points=[];autosize=1;strokeColor=#001DBC;fillColor=#0050ef;fontColor=#ffffff;" vertex="1" parent="1">
          <mxGeometry x="325" y="675" width="60" height="30" as="geometry" />
        </mxCell>
        <mxCell id="0bLsAVOf9WYYPahXs2xi-28" style="edgeStyle=orthogonalEdgeStyle;rounded=0;orthogonalLoop=1;jettySize=auto;html=1;entryX=0.5;entryY=1;entryDx=0;entryDy=0;startArrow=none;startFill=0;fillColor=#a20025;strokeColor=#6F0000;strokeWidth=2;" edge="1" parent="1">
          <mxGeometry relative="1" as="geometry">
            <mxPoint x="450" y="685" as="sourcePoint" />
            <mxPoint x="450" y="565" as="targetPoint" />
          </mxGeometry>
        </mxCell>
        <mxCell id="0bLsAVOf9WYYPahXs2xi-29" value="&lt;div&gt;Send Encrypted&lt;/div&gt;&lt;div&gt;&amp;nbsp;data &lt;/div&gt;" style="text;html=1;align=center;verticalAlign=middle;resizable=0;points=[];autosize=1;strokeColor=none;fillColor=none;" vertex="1" parent="1">
          <mxGeometry x="460" y="610" width="110" height="40" as="geometry" />
        </mxCell>
        <mxCell id="0bLsAVOf9WYYPahXs2xi-31" value="&lt;div&gt;Client decrypts data with private key. Does actions&lt;/div&gt;&lt;div&gt;based on contents, re-encrypts with server pub key&lt;br&gt;&lt;/div&gt;" style="text;html=1;align=center;verticalAlign=middle;resizable=0;points=[];autosize=1;strokeColor=none;fillColor=none;" vertex="1" parent="1">
          <mxGeometry x="15" y="685" width="290" height="40" as="geometry" />
        </mxCell>
      </root>
    </mxGraphModel>
  </diagram>
</mxfile>
